M48
; DRILL file KiCad 10.0.1 date 2026-05-03T17:35:32
; FORMAT={-:-/ absolute / metric / decimal}
; #@! TF.CreationDate,2026-05-03T17:35:32-07:00
; #@! TF.GenerationSoftware,Kicad,Pcbnew,10.0.1
; #@! TF.FileFunction,Plated,1,2,PTH
FMAT,2
METRIC
; #@! TA.AperFunction,Plated,PTH,ViaDrill
T1C0.300
; #@! TA.AperFunction,Plated,PTH,ComponentDrill
T2C0.700
; #@! TA.AperFunction,Plated,PTH,ComponentDrill
T3C0.889
; #@! TA.AperFunction,Plated,PTH,ComponentDrill
T4C1.210
; #@! TA.AperFunction,Plated,PTH,ComponentDrill
T5C1.500
%
G90
G05
T1
X115.161Y-89.06
X117.03Y-89.06
X129.95Y-96.0
X133.74Y-96.19
X134.621Y-89.06
X136.337Y-89.06
X148.84Y-95.94
X148.899Y-96.738
X153.17Y-96.06
X154.87Y-89.06
X156.24Y-89.11
X157.52Y-96.96
X165.77Y-88.47
X167.24Y-86.99
X168.6Y-87.02
X169.95Y-87.03
X171.26Y-87.01
X173.78Y-105.11
X175.32Y-105.14
T2
X103.51Y-82.15
X103.51Y-87.23
X122.73Y-82.31
X122.73Y-87.39
X142.63Y-82.38
X142.63Y-87.46
X161.55Y-82.46
X161.55Y-87.54
T3
X167.981Y-91.69
X167.981Y-106.93
X170.522Y-91.69
X170.522Y-106.93
X173.061Y-91.69
X173.061Y-106.93
X175.601Y-91.69
X175.601Y-106.93
X178.141Y-91.69
X178.141Y-106.93
X180.681Y-91.69
X180.681Y-106.93
X183.221Y-91.69
X183.221Y-106.93
T4
X95.76Y-84.73
X98.3Y-84.73
X114.82Y-84.73
X117.36Y-84.73
X134.21Y-84.86
X136.75Y-84.86
X153.76Y-84.86
X156.3Y-84.86
T5
X93.36Y-96.05
X99.71Y-93.51
X112.57Y-96.06
X118.92Y-93.52
X131.79Y-96.07
X138.14Y-93.53
X150.97Y-96.07
X157.32Y-93.53
M30
